inDegrees=no
num_controls=7
num_derivatives=13
num_iterations=127
num_multipliers=7
num_parameters=0
num_slacks=7
num_states=26
objective=5.596521
objective_accelerations=0.273129
objective_balance=0.029180
objective_effort=0.371560
objective_height=4.856737
objective_ligament=0.065914
solver_duration=1090.094688
status=Solve_Succeeded
success=true
DataType=double
version=3
OpenSimVersion=4.4-2022-07-23-0e9fedc
endheader
time	/jointset/ground_pelvis/pelvis_tilt/value	/jointset/ground_pelvis/pelvis_tx/value	/jointset/ground_pelvis/pelvis_ty/value	/jointset/hip_r/hip_flexion_r/value	/jointset/hip_r/hip_adduction_r/value	/jointset/hip_r/hip_rotation_r/value	/jointset/back/lumbar_extension/value	/jointset/patellofemoral_r/patellar_flexion_r/value	/jointset/knee_r/knee_flexion_r/value	/jointset/knee_r/knee_adduction_r/value	/jointset/knee_r/knee_rotation_r/value	/jointset/ankle_r/ankle_angle_r/value	/jointset/subtalar_r/subtalar_angle_r/value	/jointset/ground_pelvis/pelvis_tilt/speed	/jointset/ground_pelvis/pelvis_tx/speed	/jointset/ground_pelvis/pelvis_ty/speed	/jointset/hip_r/hip_flexion_r/speed	/jointset/hip_r/hip_adduction_r/speed	/jointset/hip_r/hip_rotation_r/speed	/jointset/back/lumbar_extension/speed	/jointset/patellofemoral_r/patellar_flexion_r/speed	/jointset/knee_r/knee_flexion_r/speed	/jointset/knee_r/knee_adduction_r/speed	/jointset/knee_r/knee_rotation_r/speed	/jointset/ankle_r/ankle_angle_r/speed	/jointset/subtalar_r/subtalar_angle_r/speed	/forceset/tau_hip_flexion_r	/forceset/tau_hip_adduction_r	/forceset/tau_hip_rotation_r	/forceset/tau_knee_flexion_r	/forceset/tau_ankle_angle_r	/forceset/tau_subtalar_angle_r	/forceset/tau_lumbar_extension	lambda_cid13_p0	lambda_cid14_p0	lambda_cid14_p1	lambda_cid14_p2	lambda_cid14_p3	lambda_cid14_p4	lambda_cid14_p5	/jointset/ground_pelvis/pelvis_tilt/accel	/jointset/ground_pelvis/pelvis_tx/accel	/jointset/ground_pelvis/pelvis_ty/accel	/jointset/hip_r/hip_flexion_r/accel	/jointset/hip_r/hip_adduction_r/accel	/jointset/hip_r/hip_rotation_r/accel	/jointset/back/lumbar_extension/accel	/jointset/patellofemoral_r/patellar_flexion_r/accel	/jointset/knee_r/knee_flexion_r/accel	/jointset/knee_r/knee_adduction_r/accel	/jointset/knee_r/knee_rotation_r/accel	/jointset/ankle_r/ankle_angle_r/accel	/jointset/subtalar_r/subtalar_angle_r/accel	gamma_cid13_p0	gamma_cid14_p0	gamma_cid14_p1	gamma_cid14_p2	gamma_cid14_p3	gamma_cid14_p4	gamma_cid14_p5
0	-0.006516676870836179	0.09626120259401659	0.9427240326555845	0.1762555651711513	-0.2321526668520461	-0.2616406558547806	-0.0385979564078546	0.07317816487765873	0.07317816487761825	0.1745328292646523	0.1745328015240949	0.0324735960626065	-0.003451761989982624	0	0	0	0	0	0	0	0	0	0	0	0	0	0.2164453511781227	-0.1515209358784107	-0.04717152881765915	-0.4245200765284324	0.4544677078913821	-0.1649211591803278	-0.1087763076966613	-39.0763731152787	95.70650515669679	-45.06313022242823	-3.554963156902921	-55.00239689151004	-683.4074868201109	46.28498882746167	-0.5133470346116602	-0.2410291984843529	-0.3152004777497972	4.920357318189681	0.3326375228241993	1.805366623690038	-4.302642046197566	6.855946999736386	6.85594699973618	-2.515907959967534	0.1191581971485794	3.20585414536818	1.082281020540092	6.995744388670007e-08	4.630420769602395e-08	-4.481719769214941e-07	1.651769575477461e-07	2.164468703671932e-08	1.17904231776972e-08	-2.677372588888023e-07
0.01	-0.006538595724600993	0.09624959646206931	0.9427090187419074	0.1764925157342261	-0.2321350451983012	-0.2615438814232023	-0.03881370980320636	0.07351151691652529	0.07351151691650828	0.1744068435858881	0.1745295597765006	0.0326309888962904	-0.003397350512439889	-0.004363009644710924	-0.002294829686538072	-0.002997179452210273	0.04715633048277291	0.003468866228330901	0.01924856425569918	-0.04285796868771795	0.06639092853244037	0.06639092853243748	-0.0249996429577453	-0.0006216694433506768	0.03135262166196217	0.01079622619909277	0.2122297682130261	-0.1826705172903686	-0.04571151478835804	-0.4186640292187986	0.4389528492659791	-0.1324640797566063	-0.1053701871106132	-39.0873305592289	91.93973674385624	-31.79003363156294	-5.484325679743665	-53.33950110890841	-683.7910869492946	72.47564601316473	-0.3946584952425126	-0.2197460197347718	-0.2911338283722697	4.578208748342048	0.3456540155945095	1.968690368823553	-4.233467722382766	6.488729903952654	6.488729903952469	-2.462418772212086	-0.1487835061758963	3.081087027084672	1.065331322700118	9.763030756198558e-08	6.103548419456798e-08	-6.147882077219071e-07	1.924137747269978e-07	3.671074225120612e-08	-6.201897128551262e-08	-3.443911624884319e-07
0.02	-0.006603520787983388	0.09621583480005716	0.9426642016038249	0.1771940171691143	-0.2320844063137176	-0.2612578035405837	-0.03944926157390333	0.07450039106544268	0.07450039106546444	0.1740367762158375	0.1745209105356101	0.03309813211669162	-0.003237569192285038	-0.008601241923034585	-0.004431106012975456	-0.005960644881107351	0.09291017436639473	0.006603446166945593	0.0378606902039104	-0.08395967506837097	0.1311044220230736	0.131104422023071	-0.04881633825685092	-0.001081498530639976	0.06195007734290161	0.02107396852243586	0.2080141852477307	-0.2138200987023368	-0.04425150075867584	-0.412807981909373	0.4234379906405152	-0.1000070003329158	-0.1019640665246706	-39.11980789426349	88.23622671239157	-18.52328870505718	-7.392768147155039	-51.84828335404679	-683.2410544926814	98.472385897653	-0.4883915613340384	-0.2093185264643478	-0.3084576730871516	4.639859998359458	0.2657802648809551	1.678078962191291	-3.951389584784497	6.520459991375168	6.520459991375601	-2.27931842823956	0.1515262683620272	3.054820949163503	0.9785842453901382	1.253031712372711e-07	7.576676069311201e-08	-7.814044385223202e-07	2.196505919062495e-07	5.177679746569293e-08	-1.358283657487225e-07	-4.210450660880614e-07
0.03	-0.006710111919298926	0.09616101918342075	0.9425897799268695	0.1783467455324218	-0.2320041519357026	-0.2607903398360719	-0.04048722894773744	0.07612867647162927	0.07612867647162183	0.1734346412522446	0.1745099396287066	0.03386704139669597	-0.002977718737485135	-0.01266652836080186	-0.006552974666915849	-0.008927952048400814	0.1374311583613584	0.009387539277663165	0.05554562082961561	-0.1233791437831675	0.1942797955886962	0.1942797955887006	-0.07139769396429202	-0.001122499445383547	0.09165000956000521	0.03079424997022219	0.201652554657588	-0.1980124243709567	-0.04252639072096673	-0.4031013373036391	0.41095650989719	-0.1083978048023877	-0.09712914136282622	-39.17313964620246	83.90949890198942	-22.91117824594994	-6.708999459907939	-48.44015711754994	-682.9759071838762	88.51918656441181	-0.3580148528050048	-0.2167542219165532	-0.2915339331798245	4.327577525603442	0.2756673206991749	1.800788713701389	-3.899027127272936	6.175121323205806	6.175121323206497	-2.215695255715353	-0.08332063157419328	2.900339472319079	0.9533704665147219	1.341628881332511e-07	7.772936424210946e-08	-8.332058521501861e-07	2.079482599365726e-07	5.987584486157722e-08	-1.979366952664556e-07	-4.280509867565425e-07
0.04	-0.006855839448559187	0.09608435824283292	0.942485551839315	0.1799385557207871	-0.2318978679292773	-0.2601486091051348	-0.04191175133121151	0.07838052467027871	0.07838052467027681	0.1726130625089174	0.1744982772407294	0.03492750202173447	-0.002623741393798918	-0.01642852151083649	-0.008800170803262277	-0.01192192700093088	0.1807265393778381	0.01180937184964775	0.07271409549295793	-0.1612706769957739	0.2558169805163231	0.2558169805163319	-0.09270509422050255	-0.001219794767380509	0.1202603463505227	0.03989934629968674	0.19529092406753	-0.1822047500395309	-0.04080128068314602	-0.3933946926978324	0.3984750291539166	-0.1167886092718014	-0.09229421620096825	-39.24641813612627	79.64059835200244	-27.31293108952541	-5.995619480280694	-45.18698158771013	-681.8359076106869	78.36889932714745	-0.427732903787332	-0.2343840229456973	-0.3137912301344631	4.394739402662657	0.1933281571344043	1.574787769718272	-3.645802484346378	6.192822263776129	6.192822263776061	-2.024527337993533	0.1402673869117825	2.836901863846137	0.8555472217258029	1.426347050956373e-07	7.942869618389977e-08	-8.826399499600613e-07	1.954430589122787e-07	6.783124261171712e-08	-2.598037657131479e-07	-4.336208665398452e-07
0.05	-0.007038014190676824	0.09598474958393112	0.9423511329501684	0.1819575141307888	-0.2317692723321489	-0.2593393748083015	-0.04370729183980655	0.08124009205679815	0.08124009205682041	0.1715850686540907	0.1744869307840869	0.03626887911953366	-0.002181790261027092	-0.01996438498908385	-0.01112658248114888	-0.01497231093307518	0.2228544921920583	0.01386370710903605	0.08903259233131763	-0.1975836425598023	0.3158264025789597	0.3158264025789603	-0.1127007459662263	-0.001060906190138482	0.1478562056369623	0.0484108414938843	0.1893100806150238	-0.1790264032162279	-0.03898177507068733	-0.3853177110864782	0.3853592568358872	-0.1135364534078274	-0.08765461041044333	-39.33863127690299	75.58429622658794	-26.68834593536102	-6.006561216331316	-42.46841691550595	-681.2398696436276	78.38585042938155	-0.3101884818625754	-0.2325093356676192	-0.3022834511111997	4.090238633652864	0.2044908817161298	1.645405852730129	-3.585976267686215	5.864459450675011	5.864459450673873	-1.958258208036889	-0.04794751788927731	2.697128583067101	0.8368272350490994	1.421035700025165e-07	7.66602924864832e-08	-8.762157191788505e-07	1.965222815530746e-07	7.096790253379154e-08	-3.001794003425863e-07	-4.409223511615943e-07
